<svg xmlns="http://www.w3.org/2000/svg" xmlns:xlink="http://www.w3.org/1999/xlink" width="500" zoomAndPan="magnify" viewBox="0 0 375 374.999991" height="500" preserveAspectRatio="xMidYMid meet" version="1.0"><defs><clipPath id="79da3d1866"><path d="M 0 1.398438 L 375 1.398438 L 375 374.898438 L 0 374.898438 Z M 0 1.398438 " clip-rule="nonzero"/></clipPath><clipPath id="a2d6f7829b"><path d="M 0 77.71875 L 234.449219 77.71875 L 234.449219 374.71875 L 0 374.71875 Z M 0 77.71875 " clip-rule="nonzero"/></clipPath></defs><g clip-path="url(#79da3d1866)"><path fill="#567b5c" d="M 371.335938 104.007812 C 355.335938 41.945312 302.234375 1.976562 238.136719 1.941406 C 163.941406 1.882812 89.734375 1.917969 15.539062 1.917969 L 44.613281 53.140625 C 109.15625 53.015625 173.667969 53.050781 238.214844 53.105469 C 259.503906 53.105469 278.691406 59.355469 294.851562 73.539062 C 320.035156 95.59375 327.679688 124.210938 324.335938 156.339844 C 320.515625 193.542969 296.097656 224.777344 262.789062 232.769531 C 248.664062 236.179688 233.464844 234.839844 218.835938 236.304688 C 210.550781 237.164062 206.335938 233.71875 202.421875 226.804688 C 175.453125 179.347656 148.074219 132.109375 120.820312 84.835938 C 115.855469 76.195312 110.429688 76.101562 105.519531 84.582031 C 98.285156 97.105469 91.050781 109.640625 83.816406 122.160156 C 53.253906 175.136719 22.679688 228.074219 -7.847656 281.082031 C -8.773438 282.707031 -9.402344 284.492188 -10.683594 287.367188 L -2.398438 287.367188 C 54.972656 287.367188 112.351562 287.492188 169.71875 287.171875 C 173.898438 287.136719 176.792969 288.03125 179.152344 290.070312 C 180.652344 291.316406 181.886719 293 183.136719 295.195312 C 198.117188 321.683594 213.445312 347.976562 228.519531 374.429688 L 287.871094 374.429688 C 280.796875 362.125 274.007812 350.425781 267.277344 338.726562 C 257.6875 322.117188 248.152344 305.488281 238.683594 288.96875 C 239.828125 288.078125 240.183594 287.5625 240.597656 287.539062 C 242.3125 287.378906 244.074219 287.320312 245.828125 287.253906 C 272.0625 286.164062 295.835938 277.945312 317.414062 263.089844 C 370.695312 226.53125 385.679688 159.71875 371.335938 104.007812 Z M 77.625 235.582031 C 89.480469 214.992188 100.929688 195.132812 113.039062 174.105469 C 119.859375 185.964844 126.453125 197.433594 133.09375 208.972656 C 138.164062 217.738281 143.222656 226.5625 148.417969 235.582031 Z M 77.625 235.582031 " fill-opacity="1" fill-rule="nonzero"/></g><g clip-path="url(#a2d6f7829b)"><path fill="#332932" d="M 370.597656 105.519531 C 354.6875 43.804688 301.882812 4.058594 238.144531 4.023438 C 164.363281 3.964844 90.570312 4 16.789062 4 L 45.699219 54.9375 C 109.886719 54.8125 174.039062 54.84375 238.222656 54.902344 C 259.394531 54.902344 278.46875 61.117188 294.542969 75.21875 C 319.582031 97.152344 327.1875 125.609375 323.863281 157.558594 C 320.0625 194.554688 295.78125 225.617188 262.660156 233.558594 C 248.613281 236.953125 233.5 235.621094 218.953125 237.078125 C 210.710938 237.929688 206.523438 234.503906 202.628906 227.628906 C 175.8125 180.4375 148.585938 133.464844 121.484375 86.453125 C 116.542969 77.859375 111.148438 77.769531 106.265625 86.203125 C 99.074219 98.65625 91.878906 111.121094 84.683594 123.574219 C 54.292969 176.25 23.890625 228.894531 -6.464844 281.605469 C -7.386719 283.222656 -8.011719 284.996094 -9.289062 287.855469 L -1.046875 287.855469 C 56 287.855469 113.0625 287.980469 170.109375 287.660156 C 174.265625 287.625 177.144531 288.515625 179.488281 290.539062 C 180.980469 291.78125 182.210938 293.453125 183.449219 295.640625 C 198.351562 321.980469 213.589844 348.125 228.582031 374.429688 L 287.597656 374.429688 C 280.566406 362.191406 273.816406 350.558594 267.121094 338.925781 C 257.582031 322.410156 248.101562 305.871094 238.6875 289.449219 C 239.828125 288.558594 240.179688 288.046875 240.589844 288.023438 C 242.296875 287.867188 244.050781 287.808594 245.792969 287.742188 C 271.878906 286.660156 295.519531 278.488281 316.976562 263.710938 C 369.960938 227.355469 384.863281 160.917969 370.597656 105.519531 Z M 78.527344 236.359375 C 90.320312 215.882812 101.703125 196.136719 113.746094 175.226562 C 120.527344 187.019531 127.085938 198.421875 133.6875 209.894531 C 138.730469 218.613281 143.761719 227.390625 148.925781 236.359375 Z M 78.527344 236.359375 " fill-opacity="1" fill-rule="nonzero"/></g></svg>