<svg xmlns="http://www.w3.org/2000/svg" xmlns:xlink="http://www.w3.org/1999/xlink" width="500" zoomAndPan="magnify" viewBox="0 0 375 374.999991" height="500" preserveAspectRatio="xMidYMid meet" version="1.0"><defs><clipPath id="f541205fcf"><path d="M 122.09375 91.5 L 250 91.5 L 250 214.5 L 122.09375 214.5 Z M 122.09375 91.5 " clip-rule="nonzero"/></clipPath><clipPath id="f8cafcf0d5"><path d="M 122.09375 116.132812 L 203.09375 116.132812 L 203.09375 214.5 L 122.09375 214.5 Z M 122.09375 116.132812 " clip-rule="nonzero"/></clipPath></defs><g clip-path="url(#f541205fcf)"><path fill="#567b5c" d="M 248.164062 125.359375 C 242.882812 104.878906 225.359375 91.6875 204.207031 91.679688 C 179.722656 91.660156 155.234375 91.671875 130.753906 91.671875 L 140.347656 108.574219 C 161.644531 108.53125 182.933594 108.542969 204.234375 108.5625 C 211.261719 108.5625 217.589844 110.625 222.925781 115.304688 C 231.234375 122.582031 233.757812 132.027344 232.652344 142.628906 C 231.390625 154.90625 223.335938 165.210938 212.34375 167.847656 C 207.683594 168.976562 202.667969 168.53125 197.839844 169.015625 C 195.105469 169.300781 193.714844 168.164062 192.421875 165.882812 C 183.523438 150.222656 174.488281 134.632812 165.496094 119.03125 C 163.855469 116.179688 162.066406 116.152344 160.445312 118.949219 C 158.058594 123.082031 155.671875 127.21875 153.285156 131.351562 C 143.199219 148.832031 133.109375 166.300781 123.035156 183.792969 C 122.730469 184.328125 122.523438 184.917969 122.097656 185.867188 L 124.832031 185.867188 C 143.765625 185.867188 162.699219 185.90625 181.632812 185.800781 C 183.011719 185.789062 183.964844 186.085938 184.742188 186.757812 C 185.238281 187.167969 185.648438 187.726562 186.058594 188.449219 C 191.003906 197.191406 196.058594 205.867188 201.035156 214.597656 L 220.621094 214.597656 C 218.285156 210.535156 216.046875 206.675781 213.824219 202.816406 C 210.660156 197.332031 207.511719 191.84375 204.390625 186.394531 C 204.765625 186.101562 204.882812 185.929688 205.019531 185.921875 C 205.585938 185.871094 206.167969 185.851562 206.746094 185.828125 C 215.402344 185.46875 223.25 182.757812 230.367188 177.855469 C 247.953125 165.789062 252.894531 143.742188 248.164062 125.359375 Z M 151.238281 168.777344 C 155.152344 161.984375 158.929688 155.429688 162.925781 148.492188 C 165.179688 152.402344 167.355469 156.1875 169.542969 159.996094 C 171.21875 162.890625 172.886719 165.800781 174.601562 168.777344 Z M 151.238281 168.777344 " fill-opacity="1" fill-rule="nonzero"/></g><g clip-path="url(#f8cafcf0d5)"><path fill="#332932" d="M 248.164062 125.359375 C 242.882812 104.878906 225.359375 91.6875 204.207031 91.679688 C 179.722656 91.660156 155.234375 91.671875 130.753906 91.671875 L 140.347656 108.574219 C 161.644531 108.53125 182.933594 108.542969 204.234375 108.5625 C 211.261719 108.5625 217.589844 110.625 222.925781 115.304688 C 231.234375 122.582031 233.757812 132.027344 232.652344 142.628906 C 231.390625 154.90625 223.335938 165.210938 212.34375 167.847656 C 207.683594 168.976562 202.667969 168.53125 197.839844 169.015625 C 195.105469 169.300781 193.714844 168.164062 192.421875 165.882812 C 183.523438 150.222656 174.488281 134.632812 165.496094 119.03125 C 163.855469 116.179688 162.066406 116.152344 160.445312 118.949219 C 158.058594 123.082031 155.671875 127.21875 153.285156 131.351562 C 143.199219 148.832031 133.109375 166.300781 123.035156 183.792969 C 122.730469 184.328125 122.523438 184.917969 122.097656 185.867188 L 124.832031 185.867188 C 143.765625 185.867188 162.699219 185.90625 181.632812 185.800781 C 183.011719 185.789062 183.964844 186.085938 184.742188 186.757812 C 185.238281 187.167969 185.648438 187.726562 186.058594 188.449219 C 191.003906 197.191406 196.058594 205.867188 201.035156 214.597656 L 220.621094 214.597656 C 218.285156 210.535156 216.046875 206.675781 213.824219 202.816406 C 210.660156 197.332031 207.511719 191.84375 204.390625 186.394531 C 204.765625 186.101562 204.882812 185.929688 205.019531 185.921875 C 205.585938 185.871094 206.167969 185.851562 206.746094 185.828125 C 215.402344 185.46875 223.25 182.757812 230.367188 177.855469 C 247.953125 165.789062 252.894531 143.742188 248.164062 125.359375 Z M 151.238281 168.777344 C 155.152344 161.984375 158.929688 155.429688 162.925781 148.492188 C 165.179688 152.402344 167.355469 156.1875 169.542969 159.996094 C 171.21875 162.890625 172.886719 165.800781 174.601562 168.777344 Z M 151.238281 168.777344 " fill-opacity="1" fill-rule="nonzero"/></g></svg>